<?xml version="1.0" encoding="utf-8"?>
<!-- Generator: Adobe Illustrator 18.1.1, SVG Export Plug-In . SVG Version: 6.00 Build 0)  -->
<svg version="1.1" id="Layer_1" xmlns="http://www.w3.org/2000/svg" xmlns:xlink="http://www.w3.org/1999/xlink" x="0px" y="0px"
	 viewBox="0 0 365.20578 148.7371674" enable-background="new 0 0 365.20578 148.7371674" xml:space="preserve">
<path fill="#3C455C" d="M0.0000014,0.1755054l12.3802929,134.1239929l53.6419296,14.4376678l53.6483917-14.4501495
	L132.0504456,0.17504H0.0000014V0.1755054z M105.4621658,43.633606L65.970932,60.5270004l-0.0970535,0.0318832h38.1912842
	l-4.3679962,50.2342377l-33.6744843,9.8312073l-33.8510132-10.018837l-2.1655159-25.290184h16.7385826l1.0966225,13.1016769
	l18.0140419,4.556076l18.746048-5.2866898l1.269455-21.1061096l-56.9558105-0.1853104v-0.0212555l-0.0637741,0.0212555
	l-1.2662201-15.8365173l38.3946152-15.9871674l2.2352982-0.9385757h-2.2352982H26.1210747l-2.0046921-16.184494H65.970459
	h41.1280746L105.4621658,43.633606z"/>
<text transform="matrix(1 0 0 1 161.7779694 88.8863754)" fill="#3C455C" font-family="'MyriadPro-Regular'" font-size="60">+</text>
<g>
	<polygon fill="#3C455C" points="246.3413391,133.4353485 234.4614716,0 365.20578,0 353.3258972,133.4353485 
		299.7679749,148.2687988 	"/>
	<polygon fill="#FFFFFF" points="299.8336182,60.3839264 278.1741638,60.3839264 276.6645813,43.6470795 299.8336182,43.6470795 
		299.8336182,27.2384033 299.7679749,27.2384033 258.8119202,27.2384033 259.2057495,31.6359253 263.2094727,76.7926025 
		299.8336182,76.7926025 	"/>
	<polygon fill="#FFFFFF" points="299.8336182,102.9152069 299.7679749,102.9152069 281.5215454,97.9926071 280.3401184,84.9313049 
		271.4794312,84.9313049 263.9314575,84.9313049 266.2286682,110.6601181 299.7679749,119.9802322 299.8336182,119.9802322 	"/>
	<polygon fill="#FFFFFF" points="299.7679749,60.3839264 299.7679749,76.7926025 319.9178467,76.7926025 318.0144348,97.9926071 
		299.7679749,102.9152069 299.7679749,119.9802322 333.307312,110.6601181 333.5698547,107.90345 337.4423218,64.7814484 
		337.8361206,60.3839264 333.4385986,60.3839264 	"/>
	<polygon fill="#FFFFFF" points="299.7679749,27.2384033 299.7679749,37.4117813 299.7679749,43.58144 299.7679749,43.6470795 
		339.2800903,43.6470795 339.2800903,43.6470795 339.3457336,43.6470795 339.6738892,39.9715309 340.395874,31.6359253 
		340.7896729,27.2384033 	"/>
</g>
</svg>
