<?xml version="1.0" encoding="utf-8"?>
<!-- Generator: Adobe Illustrator 18.1.1, SVG Export Plug-In . SVG Version: 6.00 Build 0)  -->
<svg version="1.1" id="Layer_1" xmlns="http://www.w3.org/2000/svg" xmlns:xlink="http://www.w3.org/1999/xlink" x="0px" y="0px"
	 viewBox="0 0 275.5395813 312.949646" enable-background="new 0 0 275.5395813 312.949646" xml:space="preserve">
<image display="none" overflow="visible" width="800" height="600" xlink:href="../../Downloads/tree_dribbble.jpg"  transform="matrix(1 0 0 1 -269.3093567 -153.3021545)">
</image>
<g>
	<path fill="none" d="M258.11026,85.4263611L139.9383392,17.2502441c-1.0277863-0.5929546-2.2938385-0.5925484-3.3212433,0.0010643
		L18.4890518,85.5031052c-1.0274258,0.5936203-1.6601124,1.6902771-1.6597328,2.8768692l0.0436401,136.4277039
		c0.0003796,1.186615,0.6337872,2.2828979,1.6616211,2.875885l108.5327759,62.6151123l-0.4432983-43.4487
		c-0.0069046-0.6760712-0.4652328-1.2639771-1.1192017-1.4355774l-67.2732773-17.6532593
		c-1.0200424-0.2676697-1.4527283-1.4765472-0.8342094-2.3306885l40.7149696-56.2254639H83.6875916
		c-1.1495819,0-1.8718796-1.2400513-1.3047409-2.2399902l36.7294922-64.7600098h-8.3811646
		c-1.1592789,0-1.8803787-1.258934-1.2938614-2.2588959l29.1750183-49.7411079v246.0670166
		c0.4899292-0.0366821,0.9754639-0.1593018,1.4153442-0.4134521l118.1281128-68.25177
		c1.0274353-0.5936279,1.6601257-1.6902771,1.659729-2.8768616L259.771759,88.3020935
		C259.7714539,87.115509,259.138031,86.0192566,258.11026,85.4263611z M252.6123352,220.6403503
		c0,1.2738647-0.6921234,2.4471436-1.8070679,3.0632935l-95.5,52.7763062
		c-2.3327332,1.2891541-5.1929321-0.3981018-5.1929321-3.0633545v-27.5544434c0-0.681778,0.4597931-1.2778015,1.1192474-1.4508514
		l67.2615814-17.6501617c1.0200348-0.2676697,1.4527283-1.4765472,0.834198-2.3306885l-40.7150269-56.2254639h14.4248047
		c1.1495819,0,1.8718872-1.2400513,1.3047485-2.2400055l-36.7295532-64.7599945h8.3812256
		c1.1592865,0,1.8803711-1.2589417,1.2938538-2.2589035l-28.6750793-48.8886223V31.8913231
		c0-2.7215576,2.9699097-4.4017944,5.3026733-3.000061l106.956604,62.1889076
		c1.0776825,0.6266022,1.7407227,1.7791061,1.7407227,3.0257034V220.6403503z"/>
	<path fill="#3C455C" d="M140.8738708,27.0880127c-0.9998322-0.5951271-2.2616272,0.1286144-2.2616272,1.2921562
		l0.0000916,21.2698479c0,0.2667961,0.071167,0.5287628,0.2061462,0.7588921l28.4689331,48.5371742
		c0.5865173,0.9999619-0.1345673,2.2589035-1.2938538,2.2589035h-8.3767395
		c-0.0010071,0.0017242-0.0012665,0.0021667-0.0022736,0.0038986l36.7273407,64.7560806
		c0.5671387,0.9999695-0.1551666,2.2400208-1.3047638,2.2400208h-14.4247894l40.7150574,56.2255096
		c0.618515,0.8541107,0.1858368,2.062973-0.8341827,2.3306427l-67.2615967,17.6501617
		c-0.6594696,0.1730499-1.119278,0.7690735-1.119278,1.4508667v30.944809c0,1.1422424,1.2257996,1.8653259,2.2255402,1.3128357
		l99.5-54.9868164c0.477829-0.2640686,0.7744598-0.7669067,0.7744598-1.3128662V94.1059113
		c0-1.2466049-0.6630402-2.3991165-1.7407227-3.0257187C250.8716125,91.0801926,163.7013702,40.6756325,140.8738708,27.0880127z"/>
	<path fill="#3C455C" d="M271.6667175,81.6173401c-0.0004883-1.3027954-0.6959229-2.5064087-1.8243408-3.1574097
		L140.0966339,3.6065855c-1.1284485-0.6510286-2.5184937-0.6505833-3.6465302,0.0011683L6.7523541,78.54422
		c-1.1280017,0.6517334-1.8226218,1.8557358-1.8222046,3.1584854l0.0479736,149.7897644
		c0.0004172,1.3028259,0.6958518,2.5064545,1.8243408,3.1575165l129.7456665,74.8533325
		c1.128418,0.6509399,2.5184937,0.6505737,3.6465454-0.0012817l129.6977844-74.9364166
		c1.1280212-0.6517487,1.8226624-1.8557892,1.8222351-3.1585541L271.6667175,81.6173401z M258.1557922,227.606781
		c0,0-86.0145721,49.6973877-115.5466309,66.7602539l0,0c-1.7760468,1.0261536-3.9968414-0.2555542-3.9968414-2.3067322
		l0.0000153-241.8553162l-29.1750183,49.7411079c-0.5865173,0.9999619,0.1345825,2.2588959,1.2938614,2.2588959h8.3811646
		l-36.7294922,64.7600098c-0.5671387,0.999939,0.155159,2.2399902,1.3047409,2.2399902h14.4247513l-40.7149696,56.2254639
		c-0.6185188,0.8541412-0.185833,2.0630188,0.8342094,2.3306885l67.2732773,17.6532593
		c0.6539688,0.1716003,1.1122971,0.7595062,1.1192017,1.4355774l0.3807373,37.3170776
		c0.0276413,2.7095337-2.9017487,4.4214478-5.248848,3.0673523L18.5345802,227.6835632
		c-1.0278339-0.5929871-1.6612415-1.68927-1.6616211-2.875885L16.829319,88.3799744
		c-0.0003796-1.1865921,0.6323071-2.2832489,1.6597328-2.8768692l118.1280441-68.2518005
		c1.0274048-0.5936127,2.293457-0.5940189,3.3212433-0.0010643L258.11026,85.4263611
		c1.027771,0.5928955,1.6611938,1.6891479,1.661499,2.8757324l0.0437622,136.4278259
		C259.815918,225.9165039,259.1832275,227.0131531,258.1557922,227.606781z"/>
</g>
</svg>
