<?xml version="1.0" encoding="utf-8"?>
<!-- Generator: Adobe Illustrator 18.1.1, SVG Export Plug-In . SVG Version: 6.00 Build 0)  -->
<svg version="1.1" id="Layer_1" xmlns:sketch="http://www.bohemiancoding.com/sketch/ns"
	 xmlns="http://www.w3.org/2000/svg" xmlns:xlink="http://www.w3.org/1999/xlink" x="0px" y="0px"
	 viewBox="-250.4755096 214.9304657 458.0707703 494.7163391"
	 enable-background="new -250.4755096 214.9304657 458.0707703 494.7163391" xml:space="preserve">
<title></title>
<desc></desc>
<g>
	<rect x="-140.5384216" y="453.1272583" fill="#929292" width="238.1967773" height="18.3227863"/>
	<rect x="-140.5384216" y="398.158783" fill="#929292" width="238.1967773" height="18.3227863"/>
	<rect x="-140.5384216" y="343.1902466" fill="#929292" width="238.1967773" height="18.3227863"/>
	<path fill="#929292" d="M152.6268158,368.1090393v-61.571106c0-20.2352295-16.3243713-36.6390076-36.5987625-36.6390076H41.0246544
		l-62.4647751-54.9684601l-62.4646835,54.9684601h-75.0034866c-20.2127991,0-36.5986633,16.2606506-36.5986633,36.6390076v61.571106
		l-54.9685516,48.3725281v256.6280518c0,20.1791992,16.3031311,36.5371704,36.7116852,36.5371704H170.883667
		c20.2754059,0,36.7115936-16.3902588,36.7115936-36.5371704V416.4815674L152.6268158,368.1090393z M152.6268158,392.2449951
		l27.4841766,24.2365723l-27.4841766,24.4300537V392.2449951z M-21.4401226,238.7499542l35.323822,31.1489716h-70.647644
		L-21.4401226,238.7499542z M-177.1841736,306.5826416c0-10.2305298,8.2030945-18.3608398,18.3218536-18.3608398h274.844574
		c9.9900513,0,18.3216858,8.2745667,18.3216858,18.4804993v148.2567749l-59.4283752,53.1366272h-193.9150696l-58.1446609-51.3036804
		V306.5826416z M15.5713015,562.7398682l-0.365757,0.3242798h-61.9031639l31.0874596-0.1621704l-41.5406876-0.1989746
		l-41.123497-36.2844238H54.3820572L13.750639,562.7488403L15.5713015,562.7398682z M-195.506958,392.2449951v48.666626
		l-27.4841919-24.4300537L-195.506958,392.2449951z M-226.3831482,686.288208
		c-3.5517578-3.3583984-5.7693939-8.0991211-5.7693939-13.2858887V553.902771V434.8043823l146.582489,128.572998
		L-226.3831482,686.288208z M-204.6683655,691.3240356l128.2598877-109.9370728H33.5284233L161.788208,691.3240356H-204.6683655z
		 M189.2724762,553.902771v119.0995483c0,5.1867676-2.2177124,9.9274902-5.7695618,13.2858887L42.6898155,563.3773804
		l146.5826569-128.572998V553.902771z"/>
</g>
</svg>
