<?xml version="1.0" encoding="utf-8"?>
<!-- Generator: Adobe Illustrator 18.1.1, SVG Export Plug-In . SVG Version: 6.00 Build 0)  -->
<svg version="1.1" id="Layer_1" xmlns="http://www.w3.org/2000/svg" xmlns:xlink="http://www.w3.org/1999/xlink" x="0px" y="0px"
	 viewBox="0.0000022 154.4931641 547 219.0136719" enable-background="new 0.0000022 154.4931641 547 219.0136719"
	 xml:space="preserve">
<g id="Layer_1_1_">
	<g>
		<g>
			<path fill="#3C455C" d="M44.0483322,187.7019958h33.7245026v94.8808899
				c0,42.5734863-20.5493279,57.7150879-52.9956512,57.7150879c-8.1607418,0-18.1896-1.1798401-24.7771816-3.4412537
				l3.8345585-27.5302124c4.6211376,1.5731506,10.8154373,2.7530212,17.4030209,2.7530212
				c14.3550396,0,23.204031-6.587616,23.204031-29.3983154L44.0483322,187.7019958L44.0483322,187.7019958z"/>
			<path fill="#3C455C" d="M107.5644531,303.1322021c8.9473267,4.6211548,23.2040253,9.3406067,37.559082,9.3406067
				c15.5348816,0,23.5973053-6.5875854,23.5973053-16.6164551c0-9.3405762-6.9808807-14.7483215-25.1704712-20.9425964
				c-24.7771988-8.9473267-41.3936386-22.81073-41.3936386-44.9332275c0-25.1704712,21.7292023-44.5399323,56.9285202-44.5399323
				c17.0097198,0,29.3983154,3.4412689,38.3456421,7.7674408l-7.7674408,27.1369171
				c-5.8009949-2.7530212-16.6164398-6.9808807-30.9714813-6.9808807c-14.7483215,0-21.6308746,6.9808807-21.6308746,14.3550415
				c0,9.6355743,8.1607361,13.9617462,27.8251648,21.335907c26.3503265,9.6355896,38.7389221,23.59729,38.7389221,44.9332275
				c0,25.1704712-18.9761658,46.5063477-60.3697968,46.5063477c-17.0097198,0-34.1178055-4.6211548-42.5735016-9.3406067
				L107.5644531,303.1322021z"/>
		</g>
	</g>
</g>
<text transform="matrix(1 0 0 1 256.6850281 282.0155945)" fill="#3C455C" font-family="'MyriadPro-Regular'" font-size="68.7689896">+</text>
<polygon fill="#DDE2E3" points="443.2251587,154.4931641 340.1347351,190.7673035 356.4752197,325.7687073 443.3106995,373.5068359 
	530.6595459,325.084259 547,190.0828857 "/>
<polygon fill="#FFFFFF" points="536.6481934,197.8681335 442.9685059,165.9571686 442.9685059,362.1283875 521.5054321,318.6678467 
	"/>
<polygon fill="#FFFFFF" points="351.7698364,198.4670105 365.7148438,319.2667236 442.9685059,362.1283875 442.9685059,165.9571686 
	"/>
<path fill="#3C455C" d="M468.8052673,270.4164124l-25.7512207,12.0628662h-27.2055969l-12.7472839,31.996521l-23.7835083,0.4277649
	l63.7363892-141.760025L468.8052673,270.4164124z M466.3242188,264.3422241l-23.0990601-45.7704468l-18.9925842,45.0004578
	h18.8214722L466.3242188,264.3422241z"/>
<polygon fill="#3C455C" points="442.9685059,173.0579987 443.1395874,218.5717773 464.698761,263.5722351 443.0540466,263.5722351 
	442.9685059,282.3937073 472.9118042,282.4792786 486.9423523,314.8179932 509.6992188,315.2457581 "/>
</svg>
