<?xml version="1.0" encoding="utf-8"?>
<!-- Generator: Adobe Illustrator 18.1.1, SVG Export Plug-In . SVG Version: 6.00 Build 0)  -->
<svg version="1.1" id="Layer_1" xmlns="http://www.w3.org/2000/svg" xmlns:xlink="http://www.w3.org/1999/xlink" x="0px" y="0px"
	 viewBox="-173.9150085 236.7590027 77.8239975 64.75" enable-background="new -173.9150085 236.7590027 77.8239975 64.75"
	 xml:space="preserve">
<g>
	<polygon fill="#DC4126" points="-114.9620056,237.5570068 -115.1640091,237.3600006 -115.1640091,237.0429993 
		-115.4570084,236.7590027 -154.4960022,236.7590027 -155.2470093,237.4860077 -155.2470093,237.8070068 -173.9150085,255.855011 
		-173.7929993,256 -135.3960114,301.5090027 -135.2540131,301.3430176 -135.026001,301.0800171 -96.2610092,256 
		-96.091011,255.802002 	"/>
	<polygon fill="#F0553A" points="-115.4570084,236.7590027 -154.4960022,236.7590027 -155.2470093,237.4860077 -155.2470093,256.25 
		-115.1640091,256.25 -115.1640091,237.0429993 	"/>
	<polygon fill="#F0553A" points="-163.3059998,256 -173.7929993,256 -135.3960114,301.5090027 -135.2540131,301.3430176 
		-152.3150024,256 	"/>
	<polygon fill="#BB3821" points="-117.7380066,256 -135.026001,301.0800171 -96.2610092,256 -106.6460114,256 	"/>
	<polygon fill="#DC4126" points="-117.7380066,256 -134.8800049,256 -134.8220062,255.9440002 -135.128006,255.9440002 
		-135.0700073,256 -152.3150024,256 -135.2540131,301.3430176 -135.026001,301.0800171 	"/>
	<polygon fill="#DC4126" points="-154.9890137,237.5570068 -163.3059998,256 -152.3150024,256 -152.3370056,255.9440002 
		-135.128006,255.9440002 -154.5670166,237.1480103 	"/>
	<polygon fill="#F0553A" points="-154.9890137,237.5570068 -173.9150085,255.855011 -173.7929993,256 -163.3059998,256 	"/>
	<polygon fill="#BB3821" points="-114.9620056,237.5570068 -115.3820114,237.1480103 -134.8220062,255.9440002 
		-117.716011,255.9440002 -117.7380066,256 -106.6460114,256 	"/>
	<polygon fill="#DC4126" points="-114.9620056,237.5570068 -106.6460114,256 -96.2610092,256 -96.091011,255.802002 	"/>
</g>
</svg>
